<svg width="36" height="36" viewBox="0 0 36 36" fill="none" xmlns="http://www.w3.org/2000/svg">
<path d="M18 33C26.271 33 33 26.271 33 18C33 9.729 26.271 3 18 3C9.729 3 3 9.729 3 18C3 26.271 9.729 33 18 33ZM18 6C24.6165 6 30 11.3835 30 18C30 24.6165 24.6165 30 18 30C11.3835 30 6 24.6165 6 18C6 11.3835 11.3835 6 18 6Z" fill="white"/>
<path d="M28.5 18C28.5 15.2152 27.3938 12.5445 25.4246 10.5754C23.4555 8.60625 20.7848 7.5 18 7.5V28.5C20.7848 28.5 23.4555 27.3938 25.4246 25.4246C27.3938 23.4555 28.5 20.7848 28.5 18Z" fill="white"/>
</svg>
