<svg width="32" height="32" viewBox="0 0 32 32" fill="none" xmlns="http://www.w3.org/2000/svg">
<path d="M12.0001 26.6666H20.0001V29.3333H12.0001V26.6666ZM22.5414 18.2826C23.9147 16.6746 25.3334 15.012 25.3334 12C25.3334 6.85463 21.1454 2.66663 16.0001 2.66663C10.8547 2.66663 6.66675 6.85463 6.66675 12C6.66675 15.0466 8.08941 16.704 9.46808 18.3066C9.94541 18.864 10.4401 19.4413 10.9134 20.1053C11.1054 20.38 11.4201 21.4333 11.7014 22.6666H10.6667V25.3333H21.3334V22.6666H20.3014C20.5854 21.4306 20.9014 20.3746 21.0921 20.1C21.5614 19.4293 22.0601 18.8466 22.5414 18.2826ZM18.9094 18.5666C18.3307 19.3893 17.8481 21.3333 17.5681 22.6666H14.4334C14.1547 21.3306 13.6707 19.3826 13.0854 18.56C12.5851 17.8724 12.053 17.2086 11.4907 16.5706C10.1921 15.0586 9.33341 14.0586 9.33341 12C9.33341 8.32396 12.3241 5.33329 16.0001 5.33329C19.6761 5.33329 22.6667 8.32396 22.6667 12C22.6667 14.028 21.8094 15.032 20.5134 16.5506C20.0161 17.1346 19.4521 17.7946 18.9094 18.5666Z" fill="white"/>
</svg>
