<svg width="32" height="32" viewBox="0 0 32 32" fill="none" xmlns="http://www.w3.org/2000/svg">
<path d="M22.0353 10.3969L22.0363 10.3979L22.863 11.1563L22.0353 10.3969ZM22.0353 10.3969C21.995 10.361 21.9466 10.3355 21.8941 10.3226C21.8417 10.3098 21.7869 10.3101 21.7346 10.3233C21.6822 10.3366 21.634 10.3625 21.594 10.3988C21.554 10.4351 21.5236 10.4807 21.5053 10.5315L21.505 10.5324M22.0353 10.3969L21.505 10.5324M21.505 10.5324L21.1357 11.592L21.1356 11.5922M21.505 10.5324L21.1356 11.5922M21.1356 11.5922C20.911 12.2412 20.4961 12.9086 19.9036 13.5687C19.8859 13.5874 19.867 13.5922 19.8517 13.5935C19.8405 13.5946 19.8232 13.5927 19.8069 13.5774L19.8069 13.5774M21.1356 11.5922L19.8069 13.5774M19.8069 13.5774L19.8037 13.5746M19.8069 13.5774L19.8037 13.5746M19.8037 13.5746C19.7893 13.5622 19.7805 13.5422 19.7816 13.5199C19.8881 11.7856 19.3692 9.83814 18.2445 7.72856C17.3102 5.96882 16.0106 4.59411 14.386 3.63543L14.3859 3.63537M19.8037 13.5746L14.3859 3.63537M14.3859 3.63537L13.2129 2.94519C13.2128 2.94515 13.2128 2.94512 13.2127 2.94508L14.3859 3.63537ZM12.4688 7.00764L12.4688 7.00759C12.7187 6.33858 12.8258 5.52879 12.7836 4.60682C12.7836 4.60681 12.7836 4.60681 12.7836 4.60681L12.7211 3.24336L12.4688 7.00764ZM12.4688 7.00764C12.1602 7.83522 11.7169 8.60399 11.15 9.2944C10.7554 9.77427 10.3082 10.2083 9.81678 10.5884C8.60688 11.5185 7.62307 12.7102 6.93902 14.0744L6.93882 14.0748M12.4688 7.00764L6.93882 14.0748M6.93882 14.0748C6.25634 15.4512 5.90083 16.9665 5.9 18.5027V18.5028M6.93882 14.0748L5.9 18.5028M5.9 18.5028C5.9 19.8571 6.16689 21.1687 6.69496 22.4057L6.695 22.4058M5.9 18.5028L6.695 22.4058M6.695 22.4058C7.20482 23.5965 7.94055 24.6772 8.8615 25.5881L8.86155 25.5881M6.695 22.4058L8.86155 25.5881M8.86155 25.5881C9.79093 26.506 10.8698 27.2292 12.0721 27.7314M8.86155 25.5881L12.0721 27.7314M8.8481 15.0273L8.84805 15.0274C8.30666 16.1159 8.03182 17.2853 8.03182 18.5056C8.03182 20.6066 8.85906 22.5811 10.3602 24.071C11.8669 25.5636 13.8671 26.3829 16 26.3829C18.1329 26.3829 20.1331 25.5636 21.6398 24.0709C23.1409 22.5839 23.9682 20.6066 23.9682 18.5056C23.9682 17.406 23.741 16.3374 23.295 15.3332L23.2949 15.3331C23.0535 14.7879 22.7544 14.2789 22.4 13.8081C22.1401 14.2116 21.8358 14.6074 21.4894 14.9955L21.4892 14.9957C21.0966 15.4329 20.5577 15.6921 19.9713 15.722C19.9712 15.722 19.9711 15.722 19.971 15.722L19.9659 15.6221C19.6903 15.638 19.4142 15.599 19.1538 15.5073L8.8481 15.0273ZM8.8481 15.0273C9.37529 13.9646 10.1608 13.0134 11.1148 12.2811C11.7369 11.8053 12.3012 11.2583 12.7962 10.6513C13.5132 9.77646 14.0756 8.80099 14.4659 7.75363L14.4659 7.75346C14.6049 7.37835 14.7111 6.99201 14.7832 6.5988M8.8481 15.0273L14.7832 6.5988M17.6559 13.3828C17.6345 13.715 17.6888 14.0477 17.8146 14.356C17.9403 14.6642 18.1343 14.9399 18.3819 15.1623L16.4545 8.68178M17.6559 13.3828L17.7557 13.3892L17.6559 13.3828C17.6559 13.3828 17.6559 13.3828 17.6559 13.3828ZM17.6559 13.3828C17.7395 12.0617 17.3105 10.4984 16.3663 8.72891M16.3663 8.72891C16.3664 8.729 16.3664 8.72909 16.3665 8.72917L16.4545 8.68178M16.3663 8.72891C15.9229 7.905 15.3996 7.19535 14.7832 6.5988M16.3663 8.72891C16.3663 8.72889 16.3663 8.72887 16.3663 8.72885L16.4545 8.68178M16.4545 8.68178L14.7832 6.5988M12.0721 27.7314C13.3174 28.2536 14.6374 28.5176 16 28.5176M12.0721 27.7314L16 28.5176M16 28.5176C17.3625 28.5176 18.6824 28.2536 19.9276 27.7343L16 28.5176ZM25.2419 14.4622C24.6848 13.2083 23.875 12.0829 22.863 11.1564L26 18.5056H26.1C26.1 18.5056 26.1 18.5055 26.1 18.5054C26.1 17.1052 25.813 15.7449 25.2419 14.4622Z" fill="white" stroke="white" stroke-width="0.2"/>
</svg>
