<svg width="36" height="36" viewBox="0 0 36 36" fill="none" xmlns="http://www.w3.org/2000/svg">
<path d="M18 24C21.309 24 24 21.309 24 18V9.00001C24 5.67451 21.3225 2.96851 18.0315 2.96851C17.9259 2.96914 17.8208 2.98172 17.718 3.00601C16.1779 3.08068 14.7254 3.74454 13.6611 4.86023C12.5967 5.97593 12.002 7.45807 12 9.00001V18C12 21.309 14.691 24 18 24Z" fill="white"/>
<path d="M16.5 29.8965V33H19.5V29.8965C25.4085 29.154 30 24.1095 30 18H27C27 22.9635 22.9635 27 18 27C13.0365 27 9 22.9635 9 18H6C6 24.108 10.5915 29.154 16.5 29.8965Z" fill="white"/>
</svg>
